<svg width="59" height="52" viewBox="0 0 59 52" fill="none" xmlns="http://www.w3.org/2000/svg">
<path d="M37.1125 52C37.8696 52 38.5958 51.7261 39.1312 51.2385C39.6665 50.7509 39.9673 50.0896 39.9673 49.4C39.9673 48.7104 39.6665 48.0491 39.1312 47.5615C38.5958 47.0739 37.8696 46.8 37.1125 46.8H13.3224C11.3034 46.8 9.36704 46.0695 7.93936 44.7693C6.51168 43.469 5.70962 41.7055 5.70962 39.8667V12.1333C5.70962 10.2945 6.51168 8.53098 7.93936 7.23073C9.36704 5.93047 11.3034 5.2 13.3224 5.2H37.1125C37.8696 5.2 38.5958 4.92607 39.1312 4.43848C39.6665 3.95088 39.9673 3.28956 39.9673 2.6C39.9673 1.91044 39.6665 1.24912 39.1312 0.761522C38.5958 0.273927 37.8696 0 37.1125 0H13.3224C9.78911 0 6.40049 1.27833 3.90205 3.55377C1.40361 5.82921 0 8.91537 0 12.1333V39.8667C0 43.0846 1.40361 46.1708 3.90205 48.4462C6.40049 50.7217 9.78911 52 13.3224 52H37.1125ZM42.7879 12.8232C43.0633 12.5914 43.3861 12.4113 43.7379 12.2932C44.0898 12.1751 44.4637 12.1213 44.8384 12.1348C45.2131 12.1483 45.5811 12.2289 45.9216 12.372C46.2621 12.5151 46.5683 12.7179 46.8227 12.9688L58.2419 24.2355C58.7293 24.7159 59 25.3459 59 26C59 26.6541 58.7293 27.2841 58.2419 27.7645L46.8227 39.0312C46.3083 39.5373 45.5943 39.8367 44.8376 39.8633C44.0809 39.89 43.3436 39.6418 42.7879 39.1733C42.2321 38.7049 41.9035 38.0546 41.8742 37.3654C41.8449 36.6763 42.1174 36.0048 42.6318 35.4987L49.628 28.5965H19.9837C19.2265 28.5965 18.5004 28.3226 17.965 27.835C17.4296 27.3474 17.1288 26.6861 17.1288 25.9965C17.1288 25.307 17.4296 24.6457 17.965 24.1581C18.5004 23.6705 19.2265 23.3965 19.9837 23.3965H49.6242L42.628 16.4944C42.3735 16.2436 42.1758 15.9496 42.0461 15.6291C41.9164 15.3087 41.8573 14.9681 41.8721 14.6269C41.887 14.2857 41.9755 13.9504 42.1326 13.6404C42.2897 13.3303 42.5124 13.0549 42.7879 12.8232Z" fill="white"/>
</svg>
