<svg width="58" height="53" viewBox="0 0 58 53" fill="none" xmlns="http://www.w3.org/2000/svg">
<path fill-rule="evenodd" clip-rule="evenodd" d="M39.2483 0.0328281C43.7761 -0.233228 48.2372 1.12601 51.6639 3.81566C55.0907 6.50531 57.2066 10.3085 57.5528 14.4C57.8989 18.4916 56.4473 22.5416 53.5129 25.6714C50.5784 28.8012 46.3979 30.7584 41.8781 31.1184L36.5775 36.5997C36.8131 37.4049 36.961 38.2373 37.0213 39.097C37.23 42.2312 36.0978 45.3179 33.8592 47.7179C31.6206 50.1179 28.4471 51.6473 24.9959 51.9892C21.5448 52.3312 18.0804 51.4596 15.3203 49.5549C12.5603 47.6503 10.7159 44.8585 10.1693 41.7577L1.63086 38.9C1.00458 38.678 0.499621 38.2426 0.224541 37.6874C-0.0505393 37.1322 -0.0737787 36.5016 0.159818 35.9311C0.393415 35.3606 0.865197 34.8957 1.47375 34.6365C2.08229 34.3772 2.77902 34.3443 3.41415 34.5447L13.3907 37.8818L13.5222 37.9264L20.2362 40.1747H20.2485C20.6893 40.3127 21.171 40.2977 21.6003 40.1327C22.0296 39.9677 22.3758 39.6643 22.5718 39.2816C22.7678 38.8988 22.7997 38.4638 22.6612 38.0609C22.5227 37.6581 22.2237 37.3162 21.8223 37.1014L3.33197 27.7962C2.74802 27.4913 2.32003 26.9911 2.14042 26.4033C1.9608 25.8156 2.04397 25.1875 2.37196 24.6547C2.69994 24.122 3.24644 23.7272 3.89347 23.5557C4.5405 23.3842 5.23614 23.4498 5.83021 23.7381L16.7272 29.2157C18.4434 28.3177 20.3566 27.7709 22.3318 27.6141L24.9122 22.7385C23.5972 20.4288 22.9411 17.8586 23.0035 15.2613C23.0659 12.6641 23.8449 10.1221 25.2696 7.86627C26.6943 5.61045 28.7196 3.71231 31.1616 2.34429C33.6035 0.976273 36.3847 0.181724 39.2525 0.0328281M24.0082 47.3765C22.5113 47.4557 21.0184 47.1702 19.685 46.55C18.3516 45.9297 17.2266 44.9973 16.4272 43.8499L18.4447 44.5263H18.4529C20.1064 45.0706 21.9256 45.0333 23.5502 44.4218C25.1747 43.8103 26.486 42.6692 27.2241 41.2246C27.9623 39.78 28.0735 38.1373 27.5357 36.6221C26.9979 35.1068 25.8504 33.8296 24.3205 33.0434L22.7427 32.2481C23.1155 32.2163 23.4903 32.2076 23.8644 32.2221C24.8917 32.2593 25.8408 31.739 26.2846 30.9029L30.1265 23.6564C30.3127 23.3014 30.3971 22.9097 30.372 22.5175C30.3468 22.1252 30.213 21.745 29.9827 21.4118C28.5648 19.3665 27.9342 16.9548 28.189 14.5518C28.4437 12.1489 29.5694 9.8894 31.3911 8.12499C33.2127 6.36058 35.6281 5.19017 38.2614 4.79585C40.8947 4.40153 43.5983 4.80542 45.9515 5.94467C48.3047 7.08392 50.1756 8.89465 51.2731 11.0951C52.3706 13.2956 52.6331 15.7625 52.0199 18.1119C51.4066 20.4613 49.9519 22.5615 47.8822 24.0858C45.8124 25.6101 43.2437 26.4729 40.5755 26.5401C40.2219 26.55 39.8743 26.6254 39.5542 26.7615C39.2341 26.8976 38.9482 27.0917 38.7142 27.3316L31.7413 34.541C31.4289 34.8655 31.2215 35.2616 31.1418 35.6857C31.062 36.1099 31.1131 36.5457 31.2893 36.9453C31.6345 37.6985 31.8358 38.5049 31.8933 39.3645C31.9578 40.3593 31.8048 41.3557 31.443 42.2969C31.0813 43.2381 30.518 44.1056 29.7853 44.8497C29.0525 45.5938 28.1648 46.2 27.1728 46.6336C26.1808 47.0672 25.1082 47.3196 24.0082 47.3765ZM40.5468 20.3973C41.2546 20.3745 41.9502 20.224 42.5928 19.9547C43.2354 19.6854 43.8121 19.3027 44.2889 18.8291C44.7657 18.3554 45.1331 17.8004 45.3695 17.1966C45.6059 16.5928 45.7065 15.9524 45.6655 15.3129C45.6244 14.6734 45.4425 14.0478 45.1304 13.4728C44.8183 12.8978 44.3824 12.385 43.8481 11.9644C43.3139 11.5439 42.6921 11.2241 42.0194 11.0239C41.3466 10.8237 40.6364 10.7471 39.9304 10.7985C38.5454 10.8994 37.259 11.4867 36.3468 12.4347C35.4345 13.3826 34.9688 14.6159 35.0494 15.8705C35.1299 17.125 35.7503 18.3013 36.7778 19.1473C37.8053 19.9934 39.1581 20.4421 40.5468 20.3973Z" fill="black"/>
</svg>
