<svg width="95" height="89" viewBox="0 0 95 89" fill="none" xmlns="http://www.w3.org/2000/svg">
<path d="M52.8819 2.37182C54.1544 0.853145 55.8801 0 57.6795 0C59.4788 0 61.2045 0.853145 62.477 2.37182L93.0132 38.8257C94.2853 40.3449 95 42.405 95 44.5531C95 46.7011 94.2853 48.7612 93.0132 50.2804L62.477 86.7343C61.1972 88.2099 59.4831 89.0264 57.7039 89.008C55.9247 88.9895 54.2227 88.1376 52.9645 86.6356C51.7064 85.1336 50.9927 83.1018 50.9773 80.9778C50.9618 78.8538 51.6458 76.8075 52.8819 75.2797L71.2511 52.6539H6.78582C4.98611 52.6539 3.26011 51.8004 1.98752 50.2812C0.714932 48.762 0 46.7015 0 44.5531C0 42.4046 0.714932 40.3441 1.98752 38.8249C3.26011 37.3057 4.98611 36.4522 6.78582 36.4522H71.2511L52.8819 13.8265C51.6097 12.3073 50.8951 10.2472 50.8951 8.09914C50.8951 5.95108 51.6097 3.89096 52.8819 2.37182Z" fill="white"/>
</svg>
