<svg width="91" height="99" viewBox="0 0 91 99" fill="none" xmlns="http://www.w3.org/2000/svg">
<path fill-rule="evenodd" clip-rule="evenodd" d="M45.4996 56.3219C54.9444 56.3219 62.5685 46.881 62.5685 35.1856C62.5685 23.4902 54.9444 14.0493 45.4996 14.0493C36.0548 14.0493 28.4307 23.4902 28.4307 35.1856C28.4307 46.881 36.0548 56.3219 45.4996 56.3219ZM45.4996 49.2765C46.9943 49.2769 48.4744 48.9128 49.8555 48.205C51.2366 47.4971 52.4916 46.4593 53.5488 45.1508C54.606 43.8424 55.4447 42.2889 56.017 40.579C56.5894 38.8692 56.8842 37.0365 56.8845 35.1856C56.8849 33.3347 56.5909 31.5018 56.0192 29.7917C55.4475 28.0815 54.6095 26.5275 53.5528 25.2183C52.4961 23.9092 51.2416 22.8707 49.8608 22.1619C48.48 21.4532 47 21.0882 45.5053 21.0877C42.4865 21.0868 39.5911 22.5708 37.4561 25.2134C35.321 27.8559 34.1211 31.4405 34.1203 35.1786C34.1195 38.9166 35.318 42.502 37.452 45.1458C39.5861 47.7897 42.4808 49.2756 45.4996 49.2765Z" fill="white"/>
<path fill-rule="evenodd" clip-rule="evenodd" d="M56.8793 70.4121H63.7068C73.2654 70.4121 78.0447 70.4121 81.6861 68.1082C84.8901 66.0746 87.4972 62.8462 89.1395 58.8787C91 54.3555 91 48.4515 91 36.6151V33.7969C91 21.9606 91 16.0425 89.1395 11.5334C87.5036 7.56019 84.8947 4.32959 81.6861 2.30386C78.0333 -6.29911e-07 73.2654 0 63.7068 0H27.2932C17.7346 0 12.9553 -6.29911e-07 9.31393 2.30386C6.10994 4.33744 3.50276 7.5659 1.86051 11.5334C1.69564e-07 16.0565 0 21.9606 0 33.7969V36.6151C0 48.4515 1.69564e-07 54.3696 1.86051 58.8787C3.50276 62.8462 6.10994 66.0746 9.31393 68.1082C12.9667 70.4121 17.7346 70.4121 27.2932 70.4121H34.1207V91.5484H14.207C13.4525 91.5484 12.7289 91.9195 12.1954 92.5801C11.6619 93.2408 11.3622 94.1368 11.3622 95.0711C11.3622 96.0054 11.6619 96.9014 12.1954 97.562C12.7289 98.2227 13.4525 98.5938 14.207 98.5938H76.793C77.5475 98.5938 78.2711 98.2227 78.8046 97.562C79.3381 96.9014 79.6378 96.0054 79.6378 95.0711C79.6378 94.1368 79.3381 93.2408 78.8046 92.5801C78.2711 91.9195 77.5475 91.5484 76.793 91.5484H56.8793V70.4121ZM63.7068 7.00316H27.2932C22.4172 7.00316 19.1001 7.00316 16.5398 7.27089C14.0477 7.51748 12.7675 7.97543 11.88 8.53907C9.7389 9.88998 7.99817 12.0455 6.90722 14.6968C6.45204 15.7959 6.08222 17.374 5.88308 20.467C5.67256 23.6304 5.66688 27.7167 5.66688 33.7758V36.594C5.66688 42.6319 5.67256 46.7394 5.88308 49.9099C6.08791 52.9958 6.45773 54.581 6.90722 55.6801C7.99963 58.3292 9.74065 60.4851 11.88 61.8378C12.7675 62.4014 14.0477 62.8594 16.5398 63.106C19.1001 63.3666 22.4001 63.3666 27.2932 63.3666H63.7068C68.5828 63.3666 71.8999 63.3666 74.4602 63.106C76.9523 62.8523 78.2325 62.3944 79.12 61.8378C81.2594 60.4851 83.0004 58.3292 84.0928 55.6801C84.548 54.581 84.9178 52.9958 85.1169 49.9028C85.3274 46.7324 85.3331 42.646 85.3331 36.5869V33.7688C85.3331 27.7379 85.3274 23.6233 85.1169 20.4529C84.9121 17.374 84.5423 15.7888 84.0928 14.6897C83.0018 12.0385 81.2611 9.88294 79.12 8.53202C78.2325 7.96839 76.9523 7.51043 74.4602 7.26384C71.8999 7.00316 68.5999 7.00316 63.7068 7.00316ZM51.1896 70.4121H39.8104V91.5484H51.1896V70.4121Z" fill="white"/>
</svg>
