<svg width="70" height="70" viewBox="0 0 70 70" fill="none" xmlns="http://www.w3.org/2000/svg">
<path d="M62.5697 45.4702C61.3835 43.7954 60.7539 41.8598 60.7527 39.8841V25.2551C60.7527 19.2201 58.0395 13.4322 53.2099 9.16482C48.3803 4.89741 41.83 2.5 35 2.5C28.17 2.5 21.6197 4.89741 16.7901 9.16482C11.9605 13.4322 9.24732 19.2201 9.24732 25.2551V39.8771C9.24762 41.8552 8.61794 43.7934 7.43028 45.4702L3.10436 51.5831C2.7282 52.1149 2.52 52.726 2.50137 53.3529C2.48274 53.9799 2.65437 54.5997 2.99843 55.1483C3.34249 55.6968 3.84644 56.1539 4.45796 56.4722C5.06949 56.7905 5.76629 56.9584 6.47603 56.9584H63.524C64.2337 56.9584 64.9305 56.7905 65.542 56.4722C66.1536 56.1539 66.6575 55.6968 67.0016 55.1483C67.3456 54.5997 67.5173 53.9799 67.4986 53.3529C67.48 52.726 67.2718 52.1149 66.8956 51.5831L62.5697 45.4702Z" stroke="black" stroke-width="5" stroke-linecap="round" stroke-linejoin="round"/>
<path d="M27.0479 67.5H42.9519" stroke="black" stroke-width="5" stroke-linecap="round"/>
</svg>
