<svg width="50" height="41" viewBox="0 0 50 41" fill="none" xmlns="http://www.w3.org/2000/svg">
<path d="M1.47998 39.3713V37.7239C1.47998 34.2284 3.03702 30.8762 5.80858 28.4045C8.58013 25.9329 12.3392 24.5443 16.2587 24.5443H19.9534C23.873 24.5443 27.632 25.9329 30.4036 28.4045C33.1751 30.8762 34.7322 34.2284 34.7322 37.7239V39.3713M43.677 6.42243C43.1484 6.42582 42.6268 6.53032 42.1474 6.72886C41.6671 6.93314 41.2237 7.22968 40.8543 7.602L40.2779 8.19509L39.6868 7.602C39.327 7.23678 38.8884 6.93984 38.3973 6.72886C37.9195 6.52805 37.3978 6.42392 36.8696 6.42392C36.3413 6.42392 35.8196 6.52805 35.3418 6.72886C34.8541 6.93534 34.4231 7.22639 34.0487 7.602C33.2889 8.39756 32.8758 9.41045 32.8848 10.4554C32.8848 11.5229 33.3023 12.5476 34.0524 13.3088L40.2742 19.602L46.4924 13.3088C47.2424 12.5476 47.6599 11.5229 47.6599 10.4554C47.6599 9.38783 47.2424 8.36312 46.4924 7.602C46.1315 7.23643 45.6917 6.93946 45.1992 6.72886C44.7232 6.53169 44.2055 6.42723 43.6807 6.42243H43.677ZM27.3428 9.71732C27.3428 11.902 26.3697 13.9971 24.6374 15.5419C22.9052 17.0867 20.5558 17.9545 18.1061 17.9545C15.6564 17.9545 13.307 17.0867 11.5747 15.5419C9.84251 13.9971 8.86936 11.902 8.86936 9.71732C8.86936 7.53268 9.84251 5.43751 11.5747 3.89273C13.307 2.34795 15.6564 1.4801 18.1061 1.4801C20.5558 1.4801 22.9052 2.34795 24.6374 3.89273C26.3697 5.43751 27.3428 7.53268 27.3428 9.71732Z" stroke="white" stroke-width="2.96025" stroke-linecap="square" stroke-linejoin="round"/>
</svg>
