<svg width="66" height="58" viewBox="0 0 66 58" fill="none" xmlns="http://www.w3.org/2000/svg">
<path d="M17.88 43.3C24.1429 43.3 29.22 38.8676 29.22 33.4C29.22 27.9324 24.1429 23.5 17.88 23.5C11.6171 23.5 6.54004 27.9324 6.54004 33.4C6.54004 38.8676 11.6171 43.3 17.88 43.3Z" stroke="white" stroke-width="3" stroke-linecap="round" stroke-linejoin="round"/>
<path d="M48.1198 21.3C54.3827 21.3 59.4598 16.8676 59.4598 11.4C59.4598 5.93238 54.3827 1.5 48.1198 1.5C41.8569 1.5 36.7798 5.93238 36.7798 11.4C36.7798 16.8676 41.8569 21.3 48.1198 21.3Z" stroke="white" stroke-width="3" stroke-linecap="round" stroke-linejoin="round"/>
<path d="M31.74 34.5C31.74 30.1 35.52 21.3 48.12 21.3C60.72 21.3 64.5 30.1 64.5 34.5M1.5 56.5C1.5 52.1 5.28 43.3 17.88 43.3C30.48 43.3 34.26 52.1 34.26 56.5" stroke="white" stroke-width="3" stroke-linecap="round" stroke-linejoin="round"/>
</svg>
