<svg width="84" height="84" viewBox="0 0 84 84" fill="none" xmlns="http://www.w3.org/2000/svg">
<path d="M71.7577 52.0586V70.8786C71.7566 73.5415 70.6983 76.0949 68.8153 77.9779C66.9324 79.8608 64.3789 80.9191 61.716 80.9202H12.5419C11.2183 80.9197 9.90793 80.6576 8.68599 80.1491C7.46404 79.6405 6.35464 78.8955 5.42151 77.9569C4.48839 77.0183 3.74994 75.9045 3.2486 74.6796C2.74726 73.4547 2.49292 72.1428 2.50018 70.8193V21.7008C2.4923 20.3793 2.74677 19.0695 3.24884 17.8471C3.7509 16.6247 4.49058 15.5142 5.425 14.5798C6.35942 13.6453 7.47001 12.9057 8.69239 12.4036C9.91478 11.9016 11.2247 11.6471 12.5461 11.655H31.3621" stroke="black" stroke-width="5" stroke-linecap="round" stroke-linejoin="round"/>
<path d="M71.7579 28.9739L54.4424 11.6544M19.8115 57.8312V48.6544C19.82 47.1411 20.4219 45.6873 21.4859 44.6149L61.89 4.21118C62.4261 3.66907 63.0644 3.23869 63.768 2.94497C64.4716 2.65124 65.2264 2.5 65.9889 2.5C66.7513 2.5 67.5062 2.65124 68.2098 2.94497C68.9133 3.23869 69.5517 3.66907 70.0878 4.21118L79.2054 13.3287C79.7475 13.8648 80.1779 14.5031 80.4716 15.2067C80.7654 15.9103 80.9166 16.6651 80.9166 17.4276C80.9166 18.19 80.7654 18.9449 80.4716 19.6484C80.1779 20.352 79.7475 20.9903 79.2054 21.5264L38.8013 61.9301C37.7269 62.9971 36.2759 63.5985 34.7617 63.6044H25.5848C24.8263 63.6055 24.0751 63.457 23.3741 63.1672C22.6732 62.8775 22.0363 62.4523 21.5 61.916C20.9637 61.3797 20.5385 60.7428 20.2487 60.0419C19.959 59.3409 19.8104 58.5897 19.8115 57.8312Z" stroke="black" stroke-width="5" stroke-linecap="round" stroke-linejoin="round"/>
</svg>
